HIERARCHY
ROOT mixamorig:Hips
{
	OFFSET -0.000008 104.274872 1.554316
	CHANNELS 6 Xposition Yposition Zposition Xrotation Yrotation Zrotation
	JOINT mixamorig:Spine
	{
		OFFSET -0.000005 10.181595 0.131519
		CHANNELS 6 Xposition Yposition Zposition Xrotation Yrotation Zrotation
		JOINT mixamorig:Spine1
		{
			OFFSET -0.000000 9.893959 -1.470707
			CHANNELS 6 Xposition Yposition Zposition Xrotation Yrotation Zrotation
			JOINT mixamorig:Spine2
			{
				OFFSET -0.000000 9.220757 -1.370641
				CHANNELS 6 Xposition Yposition Zposition Xrotation Yrotation Zrotation
				JOINT mixamorig:Neck
				{
					OFFSET 0.000001 16.740417 -2.049036
					CHANNELS 6 Xposition Yposition Zposition Xrotation Yrotation Zrotation
					JOINT mixamorig:Head
					{
						OFFSET 0.000000 9.617874 1.685006
						CHANNELS 6 Xposition Yposition Zposition Xrotation Yrotation Zrotation
						JOINT mixamorig:HeadTop_End
						{
							OFFSET 0.000002 22.037354 7.501101
							CHANNELS 6 Xposition Yposition Zposition Xrotation Yrotation Zrotation
							End Site
							{
								OFFSET 0.000168 2310.654297 -282.823242
							}
						}
					}
				}
				JOINT mixamorig:RightShoulder
				{
					OFFSET -4.569970 11.014908 -2.160885
					CHANNELS 6 Xposition Yposition Zposition Xrotation Yrotation Zrotation
					JOINT mixamorig:RightArm
					{
						OFFSET -10.592851 -0.524811 -2.232101
						CHANNELS 6 Xposition Yposition Zposition Xrotation Yrotation Zrotation
						JOINT mixamorig:RightForeArm
						{
							OFFSET -27.841511 0.000031 -0.000004
							CHANNELS 6 Xposition Yposition Zposition Xrotation Yrotation Zrotation
							JOINT mixamorig:RightHand
							{
								OFFSET -28.328831 -0.000015 0.000015
								CHANNELS 6 Xposition Yposition Zposition Xrotation Yrotation Zrotation
								JOINT mixamorig:RightHandThumb1
								{
									OFFSET -2.464806 -1.573990 2.681852
									CHANNELS 6 Xposition Yposition Zposition Xrotation Yrotation Zrotation
									JOINT mixamorig:RightHandThumb2
									{
										OFFSET -3.215179 -1.872803 1.924282
										CHANNELS 6 Xposition Yposition Zposition Xrotation Yrotation Zrotation
										JOINT mixamorig:RightHandThumb3
										{
											OFFSET -2.654831 -1.527969 1.512609
											CHANNELS 6 Xposition Yposition Zposition Xrotation Yrotation Zrotation
											JOINT mixamorig:RightHandThumb4
											{
												OFFSET -2.018814 -1.152008 1.108052
												CHANNELS 6 Xposition Yposition Zposition Xrotation Yrotation Zrotation
												End Site
												{
													OFFSET -188.809540 -114.533607 132.431396
												}
											}
										}
									}
								}
								JOINT mixamorig:RightHandIndex1
								{
									OFFSET -9.108284 -0.517868 2.259835
									CHANNELS 6 Xposition Yposition Zposition Xrotation Yrotation Zrotation
									JOINT mixamorig:RightHandIndex2
									{
										OFFSET -3.699989 0.000000 0.001215
										CHANNELS 6 Xposition Yposition Zposition Xrotation Yrotation Zrotation
										JOINT mixamorig:RightHandIndex3
										{
											OFFSET -2.850006 0.000031 -0.000522
											CHANNELS 6 Xposition Yposition Zposition Xrotation Yrotation Zrotation
											JOINT mixamorig:RightHandIndex4
											{
												OFFSET -2.772186 -0.000015 -0.000020
												CHANNELS 6 Xposition Yposition Zposition Xrotation Yrotation Zrotation
												End Site
												{
													OFFSET -277.218445 0.000000 -0.050231
												}
											}
										}
									}
								}
								JOINT mixamorig:RightHandMiddle1
								{
									OFFSET -9.532516 -0.000031 -0.000023
									CHANNELS 6 Xposition Yposition Zposition Xrotation Yrotation Zrotation
									JOINT mixamorig:RightHandMiddle2
									{
										OFFSET -3.700005 -0.000015 0.003713
										CHANNELS 6 Xposition Yposition Zposition Xrotation Yrotation Zrotation
										JOINT mixamorig:RightHandMiddle3
										{
											OFFSET -2.949974 0.000015 -0.002054
											CHANNELS 6 Xposition Yposition Zposition Xrotation Yrotation Zrotation
											JOINT mixamorig:RightHandMiddle4
											{
												OFFSET -2.946640 0.000000 -0.000156
												CHANNELS 6 Xposition Yposition Zposition Xrotation Yrotation Zrotation
												End Site
												{
													OFFSET -294.664337 0.000000 -0.113670
												}
											}
										}
									}
								}
								JOINT mixamorig:RightHandRing1
								{
									OFFSET -9.103600 -0.043076 -1.865134
									CHANNELS 6 Xposition Yposition Zposition Xrotation Yrotation Zrotation
									JOINT mixamorig:RightHandRing2
									{
										OFFSET -3.379288 0.000000 -0.001055
										CHANNELS 6 Xposition Yposition Zposition Xrotation Yrotation Zrotation
										JOINT mixamorig:RightHandRing3
										{
											OFFSET -2.889687 -0.000015 0.000379
											CHANNELS 6 Xposition Yposition Zposition Xrotation Yrotation Zrotation
											JOINT mixamorig:RightHandRing4
											{
												OFFSET -2.638809 -0.000015 0.000941
												CHANNELS 6 Xposition Yposition Zposition Xrotation Yrotation Zrotation
												End Site
												{
													OFFSET -263.880371 0.000000 0.516020
												}
											}
										}
									}
								}
								JOINT mixamorig:RightHandPinky1
								{
									OFFSET -8.076683 -0.486710 -3.806280
									CHANNELS 6 Xposition Yposition Zposition Xrotation Yrotation Zrotation
									JOINT mixamorig:RightHandPinky2
									{
										OFFSET -3.600014 -0.000015 -0.003747
										CHANNELS 6 Xposition Yposition Zposition Xrotation Yrotation Zrotation
										JOINT mixamorig:RightHandPinky3
										{
											OFFSET -2.099983 0.000000 -0.005739
											CHANNELS 6 Xposition Yposition Zposition Xrotation Yrotation Zrotation
											JOINT mixamorig:RightHandPinky4
											{
												OFFSET -2.115768 -0.000031 -0.003680
												CHANNELS 6 Xposition Yposition Zposition Xrotation Yrotation Zrotation
												End Site
												{
													OFFSET -211.577087 0.000000 -0.350686
												}
											}
										}
									}
								}
							}
						}
					}
				}
				JOINT mixamorig:LeftShoulder
				{
					OFFSET 4.570447 11.014725 -2.160855
					CHANNELS 6 Xposition Yposition Zposition Xrotation Yrotation Zrotation
					JOINT mixamorig:LeftArm
					{
						OFFSET 10.592371 -0.524597 -2.232119
						CHANNELS 6 Xposition Yposition Zposition Xrotation Yrotation Zrotation
						JOINT mixamorig:LeftForeArm
						{
							OFFSET 27.841532 -0.000031 0.000026
							CHANNELS 6 Xposition Yposition Zposition Xrotation Yrotation Zrotation
							JOINT mixamorig:LeftHand
							{
								OFFSET 28.328846 -0.000061 0.000022
								CHANNELS 6 Xposition Yposition Zposition Xrotation Yrotation Zrotation
								JOINT mixamorig:LeftHandThumb1
								{
									OFFSET 2.466141 -1.576172 2.681732
									CHANNELS 6 Xposition Yposition Zposition Xrotation Yrotation Zrotation
									JOINT mixamorig:LeftHandThumb2
									{
										OFFSET 3.217812 -1.872070 1.916482
										CHANNELS 6 Xposition Yposition Zposition Xrotation Yrotation Zrotation
										JOINT mixamorig:LeftHandThumb3
										{
											OFFSET 2.656029 -1.528778 1.514513
											CHANNELS 6 Xposition Yposition Zposition Xrotation Yrotation Zrotation
											JOINT mixamorig:LeftHandThumb4
											{
												OFFSET 2.020889 -1.154053 1.115139
												CHANNELS 6 Xposition Yposition Zposition Xrotation Yrotation Zrotation
												End Site
												{
													OFFSET 190.885437 -115.081749 130.048782
												}
											}
										}
									}
								}
								JOINT mixamorig:LeftHandIndex1
								{
									OFFSET 9.109314 -0.518021 2.259871
									CHANNELS 6 Xposition Yposition Zposition Xrotation Yrotation Zrotation
									JOINT mixamorig:LeftHandIndex2
									{
										OFFSET 3.699989 0.000000 -0.000322
										CHANNELS 6 Xposition Yposition Zposition Xrotation Yrotation Zrotation
										JOINT mixamorig:LeftHandIndex3
										{
											OFFSET 2.850006 0.000000 0.000352
											CHANNELS 6 Xposition Yposition Zposition Xrotation Yrotation Zrotation
											JOINT mixamorig:LeftHandIndex4
											{
												OFFSET 2.774864 -0.000031 -0.000027
												CHANNELS 6 Xposition Yposition Zposition Xrotation Yrotation Zrotation
												End Site
												{
													OFFSET 277.486267 0.000000 -0.009857
												}
											}
										}
									}
								}
								JOINT mixamorig:LeftHandMiddle1
								{
									OFFSET 9.533394 0.000061 0.000044
									CHANNELS 6 Xposition Yposition Zposition Xrotation Yrotation Zrotation
									JOINT mixamorig:LeftHandMiddle2
									{
										OFFSET 3.699989 -0.000015 -0.000231
										CHANNELS 6 Xposition Yposition Zposition Xrotation Yrotation Zrotation
										JOINT mixamorig:LeftHandMiddle3
										{
											OFFSET 2.949997 -0.000015 -0.000059
											CHANNELS 6 Xposition Yposition Zposition Xrotation Yrotation Zrotation
											JOINT mixamorig:LeftHandMiddle4
											{
												OFFSET 2.952896 0.000031 0.000063
												CHANNELS 6 Xposition Yposition Zposition Xrotation Yrotation Zrotation
												End Site
												{
													OFFSET 295.289337 0.000000 0.022810
												}
											}
										}
									}
								}
								JOINT mixamorig:LeftHandRing1
								{
									OFFSET 9.104523 -0.042999 -1.865074
									CHANNELS 6 Xposition Yposition Zposition Xrotation Yrotation Zrotation
									JOINT mixamorig:LeftHandRing2
									{
										OFFSET 3.150009 -0.000031 0.000043
										CHANNELS 6 Xposition Yposition Zposition Xrotation Yrotation Zrotation
										JOINT mixamorig:LeftHandRing3
										{
											OFFSET 2.949982 -0.000015 0.000040
											CHANNELS 6 Xposition Yposition Zposition Xrotation Yrotation Zrotation
											JOINT mixamorig:LeftHandRing4
											{
												OFFSET 2.644348 0.000000 0.000057
												CHANNELS 6 Xposition Yposition Zposition Xrotation Yrotation Zrotation
												End Site
												{
													OFFSET 264.434631 0.000000 0.012105
												}
											}
										}
									}
								}
								JOINT mixamorig:LeftHandPinky1
								{
									OFFSET 8.077789 -0.486847 -3.806259
									CHANNELS 6 Xposition Yposition Zposition Xrotation Yrotation Zrotation
									JOINT mixamorig:LeftHandPinky2
									{
										OFFSET 3.599953 0.000031 0.014727
										CHANNELS 6 Xposition Yposition Zposition Xrotation Yrotation Zrotation
										JOINT mixamorig:LeftHandPinky3
										{
											OFFSET 2.100021 0.000015 0.007705
											CHANNELS 6 Xposition Yposition Zposition Xrotation Yrotation Zrotation
											JOINT mixamorig:LeftHandPinky4
											{
												OFFSET 2.125504 0.000031 0.007517
												CHANNELS 6 Xposition Yposition Zposition Xrotation Yrotation Zrotation
												End Site
												{
													OFFSET 212.550781 0.000000 0.625752
												}
											}
										}
									}
								}
							}
						}
					}
				}
			}
		}
	}
	JOINT mixamorig:RightUpLeg
	{
		OFFSET -8.207787 -6.751648 -1.599560
		CHANNELS 6 Xposition Yposition Zposition Xrotation Yrotation Zrotation
		JOINT mixamorig:RightLeg
		{
			OFFSET -0.000002 -44.370117 0.345942
			CHANNELS 6 Xposition Yposition Zposition Xrotation Yrotation Zrotation
			JOINT mixamorig:RightFoot
			{
				OFFSET 0.000003 -44.423679 -3.043532
				CHANNELS 6 Xposition Yposition Zposition Xrotation Yrotation Zrotation
				JOINT mixamorig:RightToeBase
				{
					OFFSET -0.000002 -8.728671 10.710558
					CHANNELS 6 Xposition Yposition Zposition Xrotation Yrotation Zrotation
					JOINT mixamorig:RightToe_End
					{
						OFFSET -0.000001 -0.000679 9.278119
						CHANNELS 6 Xposition Yposition Zposition Xrotation Yrotation Zrotation
						End Site
						{
							OFFSET 0.000000 -0.067690 927.812134
						}
					}
				}
			}
		}
	}
	JOINT mixamorig:LeftUpLeg
	{
		OFFSET 8.207793 -6.751686 -1.599556
		CHANNELS 6 Xposition Yposition Zposition Xrotation Yrotation Zrotation
		JOINT mixamorig:LeftLeg
		{
			OFFSET -0.000004 -44.370014 0.346954
			CHANNELS 6 Xposition Yposition Zposition Xrotation Yrotation Zrotation
			JOINT mixamorig:LeftFoot
			{
				OFFSET -0.000001 -44.423672 -3.044401
				CHANNELS 6 Xposition Yposition Zposition Xrotation Yrotation Zrotation
				JOINT mixamorig:LeftToeBase
				{
					OFFSET -0.000002 -8.728669 10.710558
					CHANNELS 6 Xposition Yposition Zposition Xrotation Yrotation Zrotation
					JOINT mixamorig:LeftToe_End
					{
						OFFSET -0.000003 -0.000679 9.278133
						CHANNELS 6 Xposition Yposition Zposition Xrotation Yrotation Zrotation
						End Site
						{
							OFFSET 0.000000 -0.068021 927.813477
						}
					}
				}
			}
		}
	}
}
MOTION
Frames: 3
Frame Time: 0.033333
0.000006 104.270477 1.554256 0.000010 0.000003 -0.000113 -0.000005 10.181587 0.131522 0.000001 -0.000003 0.000084 -0.000000 9.893967 -1.470711 0.000001 0.000000 -0.000000 -0.000000 9.220802 -1.370642 0.000000 -0.000000 -0.000000 0.000001 16.740433 -2.049030 0.000000 -0.000000 -0.000000 0.000000 9.617859 1.685014 0.000000 0.000000 0.000000 0.000002 22.037384 7.501101 0.000000 -0.000000 0.000000 -4.569968 11.014880 -2.160881 0.000008 0.000001 -0.000038 -10.592880 -0.524734 -2.231935 75.072904 23.520803 -18.176112 -27.841528 0.000014 0.000528 -58.963056 108.448699 76.233695 -28.328827 0.000021 0.000020 -0.000323 -0.000043 0.000006 -2.464456 -1.573753 2.682346 -47.844365 -168.192001 -9.473746 -3.215269 -1.872580 1.924654 154.891096 31.567785 3.362761 -2.654960 -1.527878 1.513080 149.589831 26.404774 -37.135547 -2.018834 -1.152002 1.108051 -0.000004 -0.000003 0.000002 -9.108384 -0.517552 2.260148 104.579082 15.751190 -20.346372 -3.700072 0.000311 0.001528 100.132656 12.509051 -14.889814 -2.850066 0.000374 -0.000256 98.847604 10.321659 -12.039734 -2.772169 -0.000000 -0.000017 -0.000000 -0.000001 -0.000001 -9.532606 0.000268 0.000225 90.604030 15.028545 -15.328367 -3.700065 0.000335 0.003951 90.773692 10.688096 -10.738178 -2.950072 0.000345 -0.001821 90.296665 10.586979 -10.634571 -2.946641 0.000000 -0.000156 0.000001 -0.000001 0.000001 -9.103718 -0.042764 -1.864892 87.085130 18.095166 -17.168097 -3.379319 0.000315 -0.000826 89.764286 9.887065 -9.863994 -2.889761 0.000353 0.000625 93.191408 6.462634 -6.879989 -2.638808 -0.000026 0.000943 0.000001 -0.000001 -0.000000 -8.076763 -0.486388 -3.806052 78.400265 16.866356 -13.665142 -3.600042 0.000271 -0.003558 81.500631 8.751709 -7.236719 -2.100017 0.000309 -0.005522 83.242507 5.664630 -4.838705 -2.115761 -0.000054 -0.003679 -0.000001 0.000003 -0.000006 4.570446 11.014691 -2.160851 -0.000018 0.000010 -0.000021 10.592394 -0.524475 -2.232348 74.441733 -9.985250 7.593178 27.841822 0.000088 -0.000196 101.597056 -68.918904 80.152564 28.328840 -0.000028 0.000021 0.000021 -0.000088 -0.000000 2.465878 -1.576061 2.681898 -52.042329 176.105964 24.095907 3.217838 -1.871785 1.916364 153.751369 -28.666017 14.232583 2.656101 -1.528601 1.514441 139.729756 -28.164934 38.870101 2.020887 -1.154074 1.115147 0.000003 0.000001 0.000004 9.109366 -0.517853 2.259714 82.976997 -13.270830 11.737034 3.700048 0.000140 -0.000472 81.135223 -13.629916 11.698238 2.850054 0.000170 0.000213 79.598758 -12.116888 10.105613 2.774883 -0.000017 -0.000031 0.000000 -0.000001 -0.000002 9.533449 0.000224 -0.000104 81.519783 -12.670879 10.925770 3.700048 0.000160 -0.000371 84.442728 -14.715374 13.363525 2.950059 0.000155 -0.000180 82.760904 -18.424727 16.266434 2.952859 -0.000018 0.000061 0.000002 0.000000 -0.000000 9.104584 -0.042859 -1.865232 80.043718 -13.521276 11.371630 3.150054 0.000176 -0.000080 85.362926 -16.360431 15.104241 2.950027 0.000153 -0.000055 86.482428 -18.198243 17.132295 2.644329 0.000011 0.000058 -0.000001 -0.000000 0.000002 8.077826 -0.486747 -3.806411 65.304238 -16.942540 11.294093 3.599980 0.000132 0.014577 63.885321 -14.535855 9.424413 2.100039 0.000132 0.007569 65.804385 -13.337409 8.976167 2.125504 -0.000002 0.007516 0.000004 0.000002 -0.000000 -8.207786 -6.751667 -1.599560 -0.077001 -0.000003 0.000080 -0.000002 -44.370110 0.345938 0.153719 -0.000000 -0.000000 0.000000 -44.423679 -3.043532 -0.076700 0.000000 -0.000002 -0.000006 -8.728667 10.710559 -0.000009 -0.000000 -0.000000 -0.000001 -0.000679 9.278123 0.000000 -0.000000 -0.000000 8.207792 -6.751710 -1.599556 -0.074518 -0.000003 0.000081 -0.000002 -44.370014 0.346960 0.148822 0.000002 0.000000 -0.000001 -44.423664 -3.044403 -0.074314 0.000000 -0.000002 -0.000004 -8.728671 10.710558 0.000007 -0.000000 -0.000000 0.000000 -0.000680 9.278137 -0.000000 0.000000 -0.000001 
0.000006 104.270477 1.554256 0.000010 0.000003 -0.000113 -0.000005 10.181587 0.131522 0.000001 -0.000003 0.000084 -0.000000 9.893967 -1.470711 0.000001 0.000000 -0.000000 -0.000000 9.220802 -1.370642 0.000000 -0.000000 -0.000000 0.000001 16.740433 -2.049030 0.000000 -0.000000 -0.000000 0.000000 9.617859 1.685014 0.000000 0.000000 0.000000 0.000002 22.037384 7.501101 0.000000 -0.000000 0.000000 -4.569968 11.014880 -2.160881 0.000008 0.000001 -0.000038 -10.592877 -0.524758 -2.231918 75.306155 26.957734 -20.955712 -27.841524 0.000019 0.000538 -58.668627 107.282089 74.714019 -28.328823 0.000002 0.000021 -0.000317 -0.000045 0.000008 -2.464445 -1.573706 2.682295 -53.276022 -173.017489 -26.420242 -3.215265 -1.872573 1.924636 150.317560 31.285292 5.545556 -2.654972 -1.527876 1.513063 144.661931 27.975826 -29.256268 -2.018827 -1.152011 1.108065 0.000000 -0.000003 0.000002 -9.108371 -0.517555 2.260123 102.142747 14.763481 -18.281175 -3.700071 0.000317 0.001496 99.225717 12.245192 -14.346525 -2.850092 0.000364 -0.000253 97.933015 10.560728 -12.122374 -2.772163 -0.000017 -0.000021 0.000003 -0.000000 -0.000000 -9.532606 0.000260 0.000212 89.156816 18.218261 -18.099709 -3.700073 0.000311 0.003957 89.275087 13.747152 -13.480717 -2.950072 0.000333 -0.001812 91.856243 12.457052 -12.856522 -2.946640 0.000003 -0.000154 0.000001 0.000000 -0.000000 -9.103731 -0.042788 -1.864893 83.974027 21.996544 -19.800606 -3.379344 0.000302 -0.000846 85.954891 12.068763 -11.267555 -2.889756 0.000347 0.000630 94.000677 7.736496 -8.343928 -2.638808 -0.000015 0.000941 -0.000002 -0.000001 -0.000000 -8.076761 -0.486402 -3.806060 76.604765 21.300969 -16.771147 -3.600051 0.000257 -0.003551 79.364660 11.666778 -9.381882 -2.100017 0.000310 -0.005530 84.532737 6.705553 -5.893018 -2.115763 -0.000028 -0.003677 0.000001 -0.000003 -0.000002 4.570446 11.014691 -2.160851 -0.000018 0.000010 -0.000021 10.592387 -0.524481 -2.232340 74.390158 -8.414954 6.391134 27.841829 0.000058 -0.000210 102.916928 -70.880589 83.557078 28.328840 -0.000028 0.000028 0.000020 -0.000089 -0.000000 2.465953 -1.576147 2.681917 -43.414742 169.850371 -3.042446 3.217839 -1.871766 1.916378 160.522928 -27.016069 21.541553 2.656112 -1.528661 1.514475 140.802451 -27.323333 51.593589 2.020906 -1.154052 1.115136 0.000002 0.000001 0.000002 9.109376 -0.517867 2.259739 83.087667 -17.132847 15.194365 3.700017 0.000142 -0.000470 79.928322 -11.689853 9.820659 2.850062 0.000171 0.000195 79.409036 -9.675680 8.039076 2.774878 -0.000046 -0.000021 0.000000 0.000002 0.000000 9.533456 0.000192 -0.000094 81.329071 -16.313895 14.031704 3.700050 0.000153 -0.000385 83.165176 -10.645610 9.449272 2.950054 0.000169 -0.000186 85.098911 -11.727421 10.773426 2.952870 -0.000015 0.000067 0.000000 -0.000001 0.000001 9.104583 -0.042871 -1.865210 79.474763 -16.477000 13.728429 3.150035 0.000189 -0.000105 84.945417 -11.017018 10.092266 2.950008 0.000179 -0.000093 87.975452 -10.765218 10.395156 2.644316 0.000031 0.000056 0.000002 -0.000001 0.000001 8.077844 -0.486758 -3.806406 67.534431 -17.638002 12.253199 3.599988 0.000151 0.014566 68.353603 -14.496110 10.229420 2.100037 0.000156 0.007535 71.637736 -11.596328 8.733766 2.125488 -0.000012 0.007515 0.000002 0.000003 0.000003 -8.207786 -6.751667 -1.599560 -0.077001 -0.000003 0.000080 -0.000002 -44.370110 0.345938 0.153719 -0.000000 -0.000000 0.000000 -44.423679 -3.043532 -0.076700 0.000000 -0.000002 -0.000006 -8.728667 10.710559 -0.000009 -0.000000 -0.000000 -0.000001 -0.000679 9.278123 0.000000 -0.000000 -0.000000 8.207792 -6.751710 -1.599556 -0.074518 -0.000003 0.000081 -0.000002 -44.370014 0.346960 0.148822 0.000002 0.000000 -0.000001 -44.423664 -3.044403 -0.074314 0.000000 -0.000002 -0.000004 -8.728671 10.710558 0.000007 -0.000000 -0.000000 0.000000 -0.000680 9.278137 -0.000000 0.000000 -0.000001 
0.000006 104.270477 1.554256 0.000010 0.000003 -0.000113 -0.000005 10.181587 0.131522 0.000001 -0.000003 0.000084 -0.000000 9.893967 -1.470711 0.000001 0.000000 -0.000000 -0.000000 9.220802 -1.370642 0.000000 -0.000000 -0.000000 0.000001 16.740433 -2.049030 0.000000 -0.000000 -0.000000 0.000000 9.617859 1.685014 0.000000 0.000000 0.000000 0.000002 22.037384 7.501101 0.000000 -0.000000 0.000000 -4.569968 11.014880 -2.160881 0.000008 0.000001 -0.000038 -10.592873 -0.524762 -2.231907 75.555163 29.648711 -23.184599 -27.841524 0.000013 0.000539 -57.612557 106.304716 72.541650 -28.328827 0.000021 0.000025 -0.000322 -0.000043 0.000003 -2.464454 -1.573692 2.682270 -54.686644 -176.011762 -32.321599 -3.215281 -1.872584 1.924641 149.280587 31.481940 8.330255 -2.654975 -1.527858 1.513047 144.838096 28.180041 -26.209068 -2.018831 -1.151997 1.108052 -0.000002 -0.000004 0.000004 -9.108374 -0.517536 2.260134 102.239339 14.092439 -17.486633 -3.700065 0.000330 0.001506 99.069995 11.663232 -13.628204 -2.850082 0.000374 -0.000259 97.762410 9.881774 -11.310407 -2.772179 -0.000016 -0.000022 -0.000001 -0.000001 0.000000 -9.532584 0.000261 0.000225 89.495873 17.013448 -17.009037 -3.700069 0.000322 0.003956 89.484583 13.056805 -12.846024 -2.950064 0.000336 -0.001823 92.162270 11.828142 -12.272368 -2.946635 0.000001 -0.000154 0.000000 0.000000 0.000001 -9.103704 -0.042774 -1.864903 84.471661 20.770026 -18.850856 -3.379353 0.000300 -0.000842 86.660682 11.885895 -11.233847 -2.889757 0.000343 0.000651 94.910922 7.478437 -8.196352 -2.638808 -0.000028 0.000940 0.000001 -0.000001 -0.000000 -8.076765 -0.486421 -3.806072 76.528855 20.310046 -15.958442 -3.600062 0.000260 -0.003565 78.325256 11.115713 -8.762286 -2.100022 0.000313 -0.005512 84.177710 6.098488 -5.309574 -2.115775 -0.000052 -0.003678 0.000001 0.000002 -0.000004 4.570446 11.014691 -2.160851 -0.000018 0.000010 -0.000021 10.592411 -0.524464 -2.232360 74.163505 -16.378903 12.415367 27.841822 0.000054 -0.000209 104.810749 -72.430283 87.128113 28.328810 -0.000030 0.000028 0.000021 -0.000088 -0.000001 2.466019 -1.576165 2.681913 -36.815024 165.005540 -18.414410 3.217818 -1.871822 1.916390 161.708444 -26.971476 21.354925 2.656099 -1.528663 1.514468 140.611834 -27.282596 53.661719 2.020895 -1.154065 1.115150 0.000002 -0.000000 0.000001 9.109357 -0.517865 2.259729 82.957640 -17.733347 15.693557 3.700023 0.000138 -0.000457 79.751386 -11.934037 9.994731 2.850030 0.000170 0.000199 79.198434 -9.764367 8.082693 2.774886 -0.000030 -0.000025 0.000002 0.000003 0.000000 9.533435 0.000195 -0.000079 81.273698 -17.025922 14.632543 3.700041 0.000169 -0.000384 83.097584 -10.567681 9.368909 2.950042 0.000160 -0.000204 84.869574 -11.714127 10.718301 2.952879 -0.000015 0.000061 0.000002 0.000000 0.000001 9.104580 -0.042868 -1.865224 79.294494 -17.270639 14.347116 3.150038 0.000189 -0.000087 85.237988 -10.871644 10.009895 2.950024 0.000190 -0.000093 88.246727 -10.544005 10.229585 2.644333 0.000030 0.000057 -0.000001 -0.000001 0.000000 8.077841 -0.486754 -3.806395 66.767558 -18.159193 12.429007 3.599998 0.000154 0.014577 68.691936 -14.716922 10.447184 2.100033 0.000160 0.007558 72.497786 -11.863958 9.070210 2.125492 -0.000030 0.007514 -0.000001 0.000006 0.000001 -8.207786 -6.751667 -1.599560 -0.077001 -0.000003 0.000080 -0.000002 -44.370110 0.345938 0.153719 -0.000000 -0.000000 0.000000 -44.423679 -3.043532 -0.076700 0.000000 -0.000002 -0.000006 -8.728667 10.710559 -0.000009 -0.000000 -0.000000 -0.000001 -0.000679 9.278123 0.000000 -0.000000 -0.000000 8.207792 -6.751710 -1.599556 -0.074518 -0.000003 0.000081 -0.000002 -44.370014 0.346960 0.148822 0.000002 0.000000 -0.000001 -44.423664 -3.044403 -0.074314 0.000000 -0.000002 -0.000004 -8.728671 10.710558 0.000007 -0.000000 -0.000000 0.000000 -0.000680 9.278137 -0.000000 0.000000 -0.000001 
